<?xml version="1.0" encoding="utf-8"?>
<!-- Generator: Adobe Illustrator 16.0.0, SVG Export Plug-In . SVG Version: 6.00 Build 0)  -->
<!DOCTYPE svg PUBLIC "-//W3C//DTD SVG 1.1//EN" "http://www.w3.org/Graphics/SVG/1.1/DTD/svg11.dtd">
<svg version="1.1" id="Layer_1" xmlns="http://www.w3.org/2000/svg" xmlns:xlink="http://www.w3.org/1999/xlink" x="0px" y="0px"
	 width="28px" height="36.375px" viewBox="0 17.625 28 36.375" enable-background="new 0 17.625 28 36.375" xml:space="preserve">
<g id="Dark">
	<path fill="#FFFFFF" d="M22,22H6c-3.3,0-6,2.7-6,6v16c0,3.3,2.7,6,6,6h16c3.3,0,6-2.7,6-6V28C28,24.7,25.3,22,22,22z M19.96,40.95
		c-0.069,0.3-0.19,0.579-0.38,0.829s-0.43,0.461-0.721,0.611c-0.289,0.159-0.59,0.25-0.909,0.31c-0.601,0.11-1.021,0.14-1.4,0.069
		c-0.37-0.069-0.69-0.229-0.95-0.439c-0.379-0.32-0.609-0.75-0.66-1.2c-0.06-0.53,0.131-1.09,0.561-1.51
		c0.221-0.21,0.49-0.38,0.85-0.511c0.381-0.139,0.801-0.219,1.44-0.34c0.17-0.029,0.34-0.06,0.51-0.09
		c0.22-0.039,0.41-0.09,0.57-0.27c0.159-0.18,0.159-0.391,0.159-0.6V32.46c0-0.41-0.199-0.521-0.619-0.45
		c-0.301,0.051-6.77,1.26-6.77,1.26c-0.37,0.08-0.49,0.19-0.49,0.61v7.841c0,0.309-0.02,0.579-0.09,0.889
		c-0.07,0.301-0.19,0.58-0.38,0.83s-0.43,0.461-0.72,0.61c-0.29,0.16-0.59,0.25-0.91,0.31c-0.6,0.111-1.02,0.141-1.4,0.07
		C7.28,44.359,6.96,44.2,6.7,43.98c-0.38-0.32-0.59-0.75-0.65-1.201c-0.06-0.529,0.11-1.09,0.54-1.51
		c0.22-0.209,0.49-0.379,0.85-0.51c0.38-0.14,0.8-0.22,1.44-0.34c0.17-0.029,0.34-0.061,0.51-0.09c0.22-0.04,0.41-0.09,0.57-0.27
		c0.15-0.17,0.17-0.381,0.17-0.59c0-1.66,0-9.021,0-9.021c0-0.12,0.01-0.2,0.02-0.24c0.03-0.19,0.11-0.351,0.26-0.47
		c0.12-0.1,0.28-0.16,0.49-0.2l0,0l7.79-1.46c0.07-0.01,0.631-0.109,0.69-0.109c0.42-0.031,0.66,0.219,0.66,0.639v11.451
		C20.029,40.37,20.029,40.641,19.96,40.95z"/>
</g>
<g id="Light">
</g>
</svg>
