<?xml version="1.0" encoding="utf-8"?>
<!-- Generator: Adobe Illustrator 16.0.0, SVG Export Plug-In . SVG Version: 6.00 Build 0)  -->
<!DOCTYPE svg PUBLIC "-//W3C//DTD SVG 1.1//EN" "http://www.w3.org/Graphics/SVG/1.1/DTD/svg11.dtd">
<svg version="1.1" id="Light" xmlns="http://www.w3.org/2000/svg" xmlns:xlink="http://www.w3.org/1999/xlink" x="0px" y="0px"
	 width="28px" height="54px" viewBox="0 0 28 54" enable-background="new 0 0 28 54" xml:space="preserve">
<title>Vector Smart Object5</title>
<path id="iPad_Air_2" fill="#FFFFFF" d="M26.743,11H1.257C0.572,10.991,0.009,11.538,0,12.223c0,0.009,0,0.018,0,0.027v37.5
	c-0.005,0.686,0.546,1.245,1.232,1.25c0.008,0,0.017,0,0.025,0h25.486c0.685,0.009,1.248-0.539,1.257-1.225c0-0.009,0-0.018,0-0.025
	v-37.5c0.006-0.685-0.545-1.245-1.23-1.25C26.762,11,26.752,11,26.743,11z M14,12.5c0.276,0,0.5,0.224,0.5,0.5s-0.224,0.5-0.5,0.5
	s-0.5-0.224-0.5-0.5S13.724,12.5,14,12.5z M14,50c-0.552,0-1-0.447-1-1s0.448-1,1-1c0.553,0,1,0.447,1,1S14.553,50,14,50z M26,47H2
	V15h24V47z"/>
</svg>
