<?xml version="1.0" encoding="utf-8"?>
<!-- Generator: Adobe Illustrator 16.0.0, SVG Export Plug-In . SVG Version: 6.00 Build 0)  -->
<!DOCTYPE svg PUBLIC "-//W3C//DTD SVG 1.1//EN" "http://www.w3.org/Graphics/SVG/1.1/DTD/svg11.dtd">
<svg version="1.1" id="Layer_1" xmlns="http://www.w3.org/2000/svg" xmlns:xlink="http://www.w3.org/1999/xlink" x="0px" y="0px"
	 width="38px" height="54px" viewBox="0 0 38 54" enable-background="new 0 0 38 54" xml:space="preserve">
<g id="Dark">
	<path id="iPhone_7" fill="#FFFFFF" d="M14.99,48.13l-0.04-1.12H2V16.99h13V13H3.87C2.29,13,1,14.3,1,15.88v32.261
		C1,49.71,2.29,51,3.87,51h12.77C15.79,50.33,14.99,49.3,14.99,48.13z M9,15h3v0.5H9V15z M10.5,50.5C9.67,50.5,9,49.83,9,49
		s0.67-1.5,1.5-1.5S12,48.17,12,49S11.33,50.5,10.5,50.5z M34.65,6H19.33C17.49,6,16,7.51,16,9.35v38.28C16,49.48,17.49,51,19.33,51
		h15.33c1.84,0,3.35-1.52,3.35-3.37V9.35C38,7.51,36.49,6,34.65,6z M25.5,8.5h3V9h-3V8.5z M27,50.25c-0.971,0-1.75-0.779-1.75-1.75
		s0.79-1.75,1.75-1.75s1.75,0.779,1.75,1.75S27.971,50.25,27,50.25z M37,46H17V11h20V46z M27,49.5c-0.55,0-1-0.45-1-1s0.45-1,1-1
		s1,0.45,1,1S27.55,49.5,27,49.5z M10.5,49.88c-0.48,0-0.87-0.39-0.87-0.88c0-0.48,0.39-0.87,0.87-0.87s0.88,0.39,0.88,0.87
		S10.98,49.88,10.5,49.88z"/>
</g>
<g id="Light">
</g>
</svg>
