<?xml version="1.0" encoding="utf-8"?>
<!-- Generator: Adobe Illustrator 16.0.0, SVG Export Plug-In . SVG Version: 6.00 Build 0)  -->
<!DOCTYPE svg PUBLIC "-//W3C//DTD SVG 1.1//EN" "http://www.w3.org/Graphics/SVG/1.1/DTD/svg11.dtd">
<svg version="1.1" id="Layer_1" xmlns="http://www.w3.org/2000/svg" xmlns:xlink="http://www.w3.org/1999/xlink" x="0px" y="0px"
	 width="160px" height="160px" viewBox="0 0 160 160" enable-background="new 0 0 160 160" xml:space="preserve">
<path fill-rule="evenodd" clip-rule="evenodd" fill="#FFFFFF" d="M146.575,7.425c-2.667,0-5.333,0-8,0
	c-2.399,2.827-6.545,3.145-10,5c-4.333,2.667-8.667,5.333-13,8c-0.667,4-1.333,8-2,12c-15.332,15.665-30.668,31.335-46,47
	c-3.352-0.864-8.47-6.236-10-9c-10.539,0.111-11.398,8.064-18,12c-0.124,4.046-0.394,6.417,2,8c-1.229,4.468-5.156,6.155-8,9
	c-5.666,6-11.334,12-17,18c-2.836,2.836-6.791,4.535-8,9c-1.568,1.701-1.114,6.732-1,10c4.393,3.646,10.303,13.504,16,15
	c1.701,1.568,6.732,1.114,10,1c2.667-2.333,5.333-4.667,8-7c5.666-6,11.334-12,17-18c2.976-2.977,6.817-5.246,9-9
	c2.583,0.662,2.871,1.024,4,3c10.895-0.12,12.101-8.891,19-13c0-1.667,0-3.333,0-5c-3.667-3.333-7.333-6.667-11-10
	c1.364-5.067,6.713-7.713,10-11c5.333-5.666,10.667-11.334,16-17c2.667-2.333,5.333-4.667,8-7c3.333-4,6.667-8,10-12c1,0,2,0,3,0
	c0-0.333,0-0.667,0-1c3.572-1.256,7.463,0.229,10-2c4.867-1.297,2.831-2.613,5-6c0.667-0.333,1.333-0.667,2-1c0-0.667,0-1.333,0-2
	c0.333,0,0.667,0,1,0c0-0.667,0-1.333,0-2c0.333,0,0.667,0,1,0c0-0.667,0-1.333,0-2c0.333,0,0.667,0,1,0c0-0.667,0-1.333,0-2
	c0.333,0,0.667,0,1,0c0-0.667,0-1.333,0-2c0.333,0,0.667,0,1,0c0-0.667,0-1.333,0-2c0.333,0,0.667,0,1,0c0-0.667,0-1.333,0-2
	c0.333,0,0.667,0,1,0c1.149-2.1,0.052-2.206,2-4C152.21,11.338,149.153,11.761,146.575,7.425z M53.575,122.425
	c-7.666,7.999-15.334,16.001-23,24c-8.129-0.524-11.144-9.521-17-13c0.463-6.835,5.388-8.388,9-12c7.666-7.999,15.334-16.001,23-24
	c6.164,1.675,11.33,11.672,17,15C61.275,117.195,56.642,119.358,53.575,122.425z M82.575,105.425c-1.492,2.606-4.375,5.532-7,7
	c0,0.333,0,0.667,0,1c-4.458-1.161-6.184-5.185-9-8c-6.666-6.333-13.334-12.667-20-19c2.333-2.667,4.667-5.333,7-8
	c4.466,1.216,6.161,5.161,9,8C69.241,92.758,75.909,99.093,82.575,105.425z M145.575,17.425c-0.333,0-0.667,0-1,0
	c-1.759,7.709-7.07,13.264-10,20c-3.075,1.153-6.696,0.869-10,2c0,0.333,0,0.667,0,1c-1.333,0-2.667,0-4,0
	c-3.333,3.667-6.667,7.333-10,11c-11.999,11.666-24.001,23.334-36,35c0,0.333,0,0.667,0,1c-0.333,0-0.667,0-1,0
	c-0.333-0.667-0.667-1.333-1-2c-0.333,0-0.667,0-1,0c0-0.333,0-0.667,0-1c15.665-15.332,31.335-30.668,47-46c0-1.333,0-2.667,0-4
	c0.333,0,0.667,0,1,0c1.196-3.659-0.303-6.464,2-9c1.587-2.439,0.799-0.646,3-2c0-0.333,0-0.667,0-1c0.667,0,1.333,0,2,0
	c0.333-0.667,0.667-1.333,1-2c4.301-2.71,10.687-3.366,14-7c1.533,0.904,2.114,1.447,3,3
	C145.2,17.694,145.801,16.029,145.575,17.425z"/>
</svg>
