<?xml version="1.0" encoding="utf-8"?>
<!-- Generator: Adobe Illustrator 16.0.0, SVG Export Plug-In . SVG Version: 6.00 Build 0)  -->
<!DOCTYPE svg PUBLIC "-//W3C//DTD SVG 1.1//EN" "http://www.w3.org/Graphics/SVG/1.1/DTD/svg11.dtd">
<svg version="1.1" id="Layer_1" xmlns="http://www.w3.org/2000/svg" xmlns:xlink="http://www.w3.org/1999/xlink" x="0px" y="0px"
	 width="46px" height="30.833px" viewBox="0 23.167 46 30.833" enable-background="new 0 23.167 46 30.833" xml:space="preserve">
<g id="FPO_Dark" display="none">
	<g id="Mac_FPO_1_" display="inline">
		<g id="Menu_Component_5_">
			<rect id="Background_5_" x="-31" y="-62" fill="#808080" width="1000" height="160"/>
		</g>
		<g id="FPO_1x_Raster_5_" opacity="0.33">
			
				<image overflow="visible" enable-background="new    " width="941" height="86" id="Layer_0_6_" xlink:href="7CB8708F.png"  transform="matrix(1 0 0 1 -4.0005 1)">
			</image>
		</g>
	</g>
</g>
<g id="FPO_Light" display="none">
</g>
<g id="Spacing_Guide">
</g>
<g id="Artboard_Guides">
</g>
<g id="Dark">
	<g id="Mac_1_">
		<path id="MacBook_3_" fill="#FFFFFF" d="M42,49V28.5c0-0.959-0.522-1.5-1.5-1.5h-35C4.522,27,4,27.504,4,28.5V49H0
			c0.053,0.092,0.127,0.323,0.211,0.323c0,0,2.071,1.248,4.639,1.422C7.417,50.919,10.995,51.012,11,51c0.002-0.003,12,0,12,0h11
			c0,0,4.639-0.084,7.205-0.255c2.568-0.171,4.609-1.422,4.609-1.422c0.084,0,0.133-0.231,0.186-0.323H42z M6,29h34v20H6V29z"/>
	</g>
</g>
<g id="Light">
</g>
</svg>
