<?xml version="1.0" encoding="utf-8"?>
<!-- Generator: Adobe Illustrator 16.0.0, SVG Export Plug-In . SVG Version: 6.00 Build 0)  -->
<!DOCTYPE svg PUBLIC "-//W3C//DTD SVG 1.1//EN" "http://www.w3.org/Graphics/SVG/1.1/DTD/svg11.dtd">
<svg version="1.1" id="Light" xmlns="http://www.w3.org/2000/svg" xmlns:xlink="http://www.w3.org/1999/xlink" x="0px" y="0px"
	 width="63.667px" height="60px" viewBox="69.5 0 63.667 60" enable-background="new 69.5 0 63.667 60" xml:space="preserve">
<title>family-chapternav-watch-master-03-weir</title>
<path id="Apple_Watch_Series_1" fill="#FFFFFF" d="M112.777,31.111v-5.556h-1.111V23.7c0-0.844-0.227-1.673-0.654-2.4
	c-0.445-0.755-1.234-1.4-1.712-2.144c-0.671-1.02-1.163-2.147-1.456-3.333c-0.299-1.278-0.211-2.6-0.466-3.889
	c-0.189-0.887-0.96-1.529-1.866-1.555c-1.034-0.145-2.078-0.222-3.123-0.289C101.344,10.022,100.2,10,99.111,10
	c-2.081-0.047-4.162,0.113-6.211,0.478c-0.616,0.159-1.091,0.647-1.233,1.267c-0.122,0.6-0.222,2.066-0.333,2.922
	c-0.134,1.83-0.868,3.564-2.089,4.934l-0.511,0.566c-0.958,0.927-1.503,2.2-1.511,3.534v19.267
	c-0.025,1.356,0.538,2.657,1.544,3.566c1.439,1.107,2.346,2.769,2.5,4.578c0.2,1.289,0.056,2.589,0.311,3.844
	c0.203,0.639,0.741,1.113,1.4,1.234c2.229,0.361,4.487,0.521,6.745,0.477c2.081,0.048,4.162-0.112,6.211-0.477
	c0.637-0.141,1.138-0.633,1.289-1.268c0.121-0.6-0.156-3.521,0.877-5.289c0.367-0.621,1.934-2.967,1.934-2.967
	s0.178-0.244,0.223-0.288c0.887-0.917,1.391-2.136,1.41-3.411V31.111H112.777z M110.556,42.967c0.076,1.934-1.403,3.574-3.333,3.699
	H91.667c-1.934-0.119-3.416-1.764-3.333-3.699V23.7c-0.077-1.934,1.402-3.575,3.333-3.7h15.556c1.93,0.125,3.409,1.767,3.333,3.7
	V42.967z"/>
</svg>
